<svg width="50" height="51" viewBox="0 0 50 51" fill="none" xmlns="http://www.w3.org/2000/svg">
<circle cx="25" cy="25.4564" r="25" fill="#BC871E"/>
<path d="M36.5469 38.3701C35.9762 38.3701 35.4209 38.1483 34.9566 37.7231C34.7073 37.4958 34.6902 37.1091 34.9181 36.8604C35.1466 36.6112 35.5327 36.5941 35.7807 36.8219C36.1962 37.2007 36.6 37.18 36.8633 37.0969C37.3136 36.9545 37.6991 36.533 37.8011 36.0723C37.861 35.8011 37.8451 35.3978 37.4309 35.0191C37.1822 34.7912 37.1645 34.4045 37.3924 34.1558C37.6203 33.9066 38.0076 33.8901 38.2557 34.1173C38.9051 34.7118 39.1745 35.52 38.9949 36.3356C38.7976 37.2301 38.1054 37.9858 37.2317 38.2619C37.0051 38.334 36.7747 38.3701 36.5469 38.3701Z" fill="#FFFBF6"/>
<path d="M23.448 35.842H13.1109C12.7731 35.842 12.5 35.5689 12.5 35.2311C12.5 34.8932 12.7731 34.6201 13.1109 34.6201H23.448C23.7858 34.6201 24.0589 34.8932 24.0589 35.2311C24.0589 35.5689 23.7858 35.842 23.448 35.842Z" fill="#FFFBF6"/>
<path d="M25.0008 39.5076C24.7631 39.5076 24.5365 39.3677 24.4381 39.135L22.8863 35.4693C22.755 35.1584 22.8998 34.7998 23.2108 34.6684C23.5193 34.5383 23.8797 34.6812 24.0117 34.9928L25.5635 38.6584C25.6948 38.9694 25.55 39.328 25.2391 39.4594C25.1615 39.4924 25.0808 39.5076 25.0008 39.5076Z" fill="#FFFBF6"/>
<path d="M11.5603 39.5076C11.4803 39.5076 11.3997 39.4923 11.3221 39.4593C11.0111 39.328 10.8663 38.9693 10.9977 38.6584L12.5495 34.9927C12.6808 34.6806 13.0419 34.5382 13.3504 34.6683C13.6614 34.7997 13.8062 35.1583 13.6748 35.4693L12.123 39.1349C12.0247 39.3677 11.798 39.5076 11.5603 39.5076Z" fill="#FFFBF6"/>
<path d="M37.845 35.1797C37.6978 35.1797 37.5499 35.1265 37.4326 35.019L24.2535 22.9542C24.0042 22.7263 23.9871 22.3402 24.215 22.0916C24.4429 21.8423 24.8296 21.8258 25.0776 22.0531L38.2574 34.1185C38.5066 34.3464 38.5237 34.7325 38.2959 34.9811C38.1749 35.1131 38.0106 35.1797 37.845 35.1797Z" fill="#FFFBF6"/>
<path d="M35.371 37.8838C35.2238 37.8838 35.0759 37.8306 34.9586 37.7231L21.7789 25.6583C21.5296 25.4304 21.5125 25.0443 21.7404 24.7957C21.9682 24.5458 22.3556 24.5293 22.603 24.7572L35.7828 36.822C36.032 37.0499 36.0491 37.436 35.8213 37.6846C35.7009 37.8166 35.5359 37.8838 35.371 37.8838Z" fill="#FFFBF6"/>
<path d="M27.6854 21.1745C27.5381 21.1745 27.3903 21.1214 27.273 21.0139C27.0237 20.7866 27.0066 20.3999 27.2345 20.1512L27.8534 19.4755C28.0813 19.2263 28.468 19.2091 28.716 19.437C28.9653 19.6643 28.9824 20.051 28.7545 20.2997L28.1356 20.9754C28.0153 21.1079 27.8503 21.1745 27.6854 21.1745Z" fill="#FFFBF6"/>
<path d="M19.9042 29.6728C19.757 29.6728 19.6091 29.6196 19.4912 29.5121C19.2425 29.2842 19.2254 28.8975 19.4533 28.6488L20.0728 27.9731C20.3007 27.7245 20.6868 27.7074 20.9361 27.9353C21.1847 28.1631 21.2018 28.5499 20.9739 28.7985L20.3545 29.4742C20.2341 29.6062 20.0698 29.6728 19.9042 29.6728Z" fill="#FFFBF6"/>
<path d="M12.283 22.6939C12.1358 22.6939 11.988 22.6408 11.8707 22.5332C11.6214 22.306 11.6043 21.9192 11.8322 21.6706L12.451 20.9949C12.6789 20.745 13.0656 20.7285 13.3137 20.9564C13.563 21.1837 13.5801 21.5704 13.3522 21.819L12.7333 22.4947C12.6129 22.6267 12.448 22.6939 12.283 22.6939Z" fill="#FFFBF6"/>
<path d="M20.0585 14.1951C19.9113 14.1951 19.7634 14.142 19.6455 14.0345C19.3968 13.8066 19.3797 13.4199 19.6076 13.1712L20.2271 12.4955C20.455 12.2475 20.8411 12.2297 21.0904 12.4576C21.339 12.6855 21.3561 13.0722 21.1282 13.3209L20.5088 13.9966C20.3884 14.1285 20.2241 14.1951 20.0585 14.1951Z" fill="#FFFBF6"/>
<path d="M13.576 22.6366C13.4288 22.6366 13.2809 22.5834 13.1636 22.4759C12.9144 22.248 12.8973 21.8619 13.1251 21.6133L20.2859 13.7908C20.5138 13.5416 20.9005 13.5245 21.1486 13.7523C21.3978 13.9802 21.4149 14.3663 21.1871 14.615L14.0263 22.438C13.9059 22.5694 13.741 22.6366 13.576 22.6366Z" fill="#FFFBF6"/>
<path d="M19.8475 28.3781C19.7003 28.3781 19.5524 28.325 19.4351 28.2175C19.1858 27.9896 19.1687 27.6035 19.3966 27.3548L26.5574 19.5324C26.7853 19.2825 27.172 19.266 27.4201 19.4939C27.6693 19.7218 27.6864 20.1079 27.4586 20.3565L20.2984 28.1796C20.1774 28.3115 20.0131 28.3781 19.8475 28.3781Z" fill="#FFFBF6"/>
<path d="M27.6868 21.1746C27.5396 21.1746 27.3918 21.1214 27.2745 21.0139L19.65 14.0346C19.4007 13.8067 19.3836 13.4206 19.6115 13.1719C19.8393 12.9227 20.2261 12.9062 20.4741 13.1334L28.0986 20.1128C28.3479 20.3407 28.365 20.7268 28.1371 20.9754C28.0167 21.108 27.8518 21.1746 27.6868 21.1746Z" fill="#FFFBF6"/>
<path d="M20.5247 28.997C20.3775 28.997 20.2296 28.9439 20.1123 28.8364L12.4878 21.857C12.2386 21.6291 12.2215 21.243 12.4494 20.9944C12.6772 20.7445 13.064 20.728 13.312 20.9559L20.9365 27.9352C21.1858 28.1631 21.2029 28.5492 20.975 28.7979C20.8546 28.9304 20.6897 28.997 20.5247 28.997Z" fill="#FFFBF6"/>
<path d="M28.1328 16.614C27.9855 16.614 27.8377 16.5609 27.7204 16.4534L24.1519 13.1867C23.9026 12.9588 23.8855 12.5727 24.1134 12.324C24.3413 12.0748 24.728 12.0577 24.9761 12.2855L28.5445 15.5522C28.7938 15.7801 28.8109 16.1662 28.583 16.4149C28.4627 16.5474 28.2977 16.614 28.1328 16.614Z" fill="#FFFBF6"/>
<path d="M16.0214 29.845C15.8742 29.845 15.7264 29.7918 15.6091 29.6843L12.0406 26.4176C11.7913 26.1897 11.7742 25.8036 12.0021 25.555C12.23 25.3057 12.6167 25.2886 12.8647 25.5165L16.4332 28.7832C16.6825 29.0111 16.6996 29.3972 16.4717 29.6458C16.3514 29.7778 16.1864 29.845 16.0214 29.845Z" fill="#FFFBF6"/>
<path d="M28.303 20.4988C28.1557 20.4988 28.0079 20.4456 27.8906 20.3381C27.6413 20.1108 27.6242 19.7241 27.8521 19.4755C28.6482 18.6055 28.5883 17.2498 27.7183 16.4538C27.469 16.2265 27.4519 15.8398 27.6798 15.5911C27.9077 15.3419 28.2944 15.3247 28.5425 15.5526C29.9091 16.8038 30.0038 18.9329 28.7526 20.3002C28.6329 20.4316 28.4685 20.4988 28.303 20.4988Z" fill="#FFFBF6"/>
<path d="M17.8737 30.566C17.0324 30.566 16.2333 30.2562 15.6089 29.6844C15.3597 29.4571 15.3426 29.0704 15.5704 28.8217C15.7977 28.5725 16.1857 28.5554 16.4331 28.7833C16.8546 29.1682 17.3953 29.371 17.9714 29.3417C18.5427 29.3166 19.0687 29.071 19.4542 28.6495C19.6821 28.4002 20.0694 28.3837 20.3174 28.611C20.5661 28.8389 20.5838 29.2256 20.3559 29.4742C19.7499 30.1365 18.922 30.5232 18.0258 30.5623C17.9751 30.5648 17.9244 30.566 17.8737 30.566Z" fill="#FFFBF6"/>
<path d="M20.6793 13.5195C20.5321 13.5195 20.3842 13.4664 20.2669 13.3595C20.0183 13.1316 20.0006 12.7449 20.2284 12.4962C20.8345 11.834 21.6623 11.4472 22.5586 11.4081C23.4505 11.3703 24.3132 11.6794 24.9754 12.2867C25.2247 12.5139 25.2418 12.9007 25.0139 13.1493C24.786 13.3986 24.3993 13.4151 24.1513 13.1878C23.7303 12.8029 23.1933 12.5964 22.6129 12.6294C22.0417 12.6545 21.5157 12.9 21.1302 13.3216C21.0098 13.4529 20.8443 13.5195 20.6793 13.5195Z" fill="#FFFBF6"/>
<path d="M12.4518 26.5783C12.3046 26.5783 12.1567 26.5252 12.0394 26.4177C10.6727 25.1671 10.5781 23.0373 11.8286 21.6701C12.0565 21.4202 12.4439 21.4043 12.6919 21.6316C12.9405 21.8595 12.9583 22.2462 12.7304 22.4948C11.9337 23.3654 11.9942 24.7205 12.8636 25.5165C13.1128 25.7444 13.1299 26.1305 12.9021 26.3792C12.7817 26.5117 12.6168 26.5783 12.4518 26.5783Z" fill="#FFFBF6"/>
<path d="M25.0008 39.5075H11.5602C11.2223 39.5075 10.9492 39.2345 10.9492 38.8966C10.9492 38.5588 11.2223 38.2857 11.5602 38.2857H25.0008C25.3386 38.2857 25.6117 38.5588 25.6117 38.8966C25.6117 39.2345 25.3386 39.5075 25.0008 39.5075Z" fill="#FFFBF6"/>
</svg>
